<svg width="601" height="205" viewBox="0 0 601 205" fill="none" xmlns="http://www.w3.org/2000/svg">
<path d="M404.361 60.9954C431.673 62.1841 452.85 85.2887 451.662 112.601C451.589 114.256 452.425 118.063 456.342 120.047C464.534 121.712 471.498 124.989 476.164 129.182C477.731 129.967 481.466 131.55 483.866 131.604C485.847 131.634 487.847 131.692 489.864 131.78C534.005 133.701 593.725 176.003 592.992 192.832C557.492 192.832 532.988 194.092 490.209 192.832L410.784 189.396L185.736 185.607L76.3391 180.845C23.9959 180.846 0.353248 180.845 0.999383 166C1.73184 149.171 34.8505 117.982 78.9915 119.903C80.5003 119.969 81.9985 120.05 83.4852 120.146C90.3375 120.481 92.3872 119.311 92.6101 118.597C92.6168 118.563 92.6235 118.529 92.6302 118.495C97.275 94.8954 118.581 77.5846 143.346 78.6624C151.373 79.0118 158.871 81.2545 165.426 84.9408L168.779 84.3838C177.189 67.2989 195.121 55.8922 215.366 56.7734L233.396 60.0605C242.356 44.6802 259.333 34.6643 278.351 35.492C280.746 35.5962 283.094 35.8691 285.385 36.2986C286.956 36.2002 290.545 35.5223 292.326 33.5979C301.851 21.5804 316.808 14.144 333.3 14.8618C357.012 15.8939 376.101 33.4459 379.942 55.9288C383.883 57.9154 391.87 61.8992 392.286 61.9413C396.173 61.1493 400.218 60.8151 404.361 60.9954Z" fill="white"/>
</svg>
