<svg id="Layer_1" data-name="Layer 1" xmlns="http://www.w3.org/2000/svg" viewBox="0 0 279 459.58"><defs><style>.cls-1{fill:#fff;}</style></defs><title>ship-w</title><polyline class="cls-1" points="154 0 146.39 0 127 18.68 127 135.31 123.65 145.86 0 301.63 0 329.71 96.52 231.68 96.52 272.58 96.52 272.58 107.23 292.21 107.23 416.85 119.6 458.7 131.97 416.85 131.97 292.5 137.38 292.5 137.38 412.56 149.75 459.58 162.13 412.56 162.13 292.5 178.56 292.5 153.1 231.41 153.71 231.41 153.71 209.62 279 336.96 279 308.87 153.71 150.94 153.71 149"/><path class="cls-1" d="M-310.67,290.38" transform="translate(442.39 0.52)"/></svg>